<svg width="1366" height="695" viewBox="0 0 1366 695" fill="none" xmlns="http://www.w3.org/2000/svg">
<rect width="1366" height="695" fill="white"/>
<g clip-path="url(#clip0_4_94)">
<rect width="479" height="695" fill="white"/>
<rect width="412" height="695" fill="url(#paint0_linear_4_94)"/>
<circle cx="288.028" cy="348.028" r="113.028" fill="url(#paint1_linear_4_94)"/>
<path d="M4.45081 373.291C4.45081 373.291 21.7794 343.308 41.3282 365.897C41.3282 365.897 43.9993 315.496 80.8767 333.743C80.8767 333.743 87.5377 310.289 109.758 306.813C131.978 303.336 152.411 349.396 152.411 349.396C152.411 349.396 154.181 328.537 171.075 325.06C187.97 321.584 197.736 339.831 197.736 339.831C197.736 339.831 189.739 302.471 217.285 290.296C243.812 278.577 267.952 312.019 267.952 312.019C267.952 312.019 270.623 287.684 285.731 282.477C300.839 277.271 307.066 316.361 307.066 316.361C307.066 316.361 328.401 300.725 328.401 327.655C328.401 327.655 341.74 289.43 370.17 290.296C398.617 291.161 396.831 346.768 396.831 346.768C396.831 346.768 402.156 337.497 411.488 345.169V455.812H4.45081V373.291Z" fill="url(#paint2_linear_4_94)"/>
<path d="M4.45075 408.055H37.7723V333.76H133.764V425.862H173.763V366.778H246.633V436.292H302.625V333.76H382.624V405.885H411.505V675.598H4L4.45075 408.055Z" fill="url(#paint3_linear_4_94)"/>
<path d="M411.505 432.375H338.184V520.576H314.178V357.214H292.859V298.13H281.29V355.484H226.2V372.866H207.535V506.67H189.756V409.361H155.099V398.067H97.3205V409.361H75.9854V502.329H57.3213V459.746H4.45081V724.775H411.054L411.505 432.375Z" fill="url(#paint4_linear_4_94)"/>
<path d="M4.45075 592.26H23.5489V529.259H109.774V641.355H127.537V556.206H144.431V473.652H163.98V448.451L221.759 472.787H240.406V552.729H255.531V641.355H275.965V576.183H363.058V487.558H376.397V475.398H411.505V724.775H4L4.45075 592.26Z" fill="url(#paint5_linear_4_94)"/>
<path d="M339.069 600.519H301.741V607.472H339.069V600.519Z" fill="url(#paint6_linear_4_94)"/>
<path d="M339.069 616.677H301.741V623.63H339.069V616.677Z" fill="url(#paint7_linear_4_94)"/>
<path d="M339.069 632.835H301.741V639.788H339.069V632.835Z" fill="url(#paint8_linear_4_94)"/>
<path d="M339.069 649.01H301.741V655.963H339.069V649.01Z" fill="url(#paint9_linear_4_94)"/>
<path d="M339.069 665.168H301.741V672.121H339.069V665.168Z" fill="url(#paint10_linear_4_94)"/>
<path d="M339.069 681.327H301.741V688.28H339.069V681.327Z" fill="url(#paint11_linear_4_94)"/>
<path d="M164.865 629.196V639.625H154.197V629.196H164.865Z" fill="url(#paint12_linear_4_94)"/>
<path d="M185.315 629.196V639.625H174.648V629.196H185.315Z" fill="url(#paint13_linear_4_94)"/>
<path d="M205.749 629.196V639.625H195.082V629.196H205.749Z" fill="url(#paint14_linear_4_94)"/>
<path d="M164.865 610.948V621.378H154.197V610.948H164.865Z" fill="url(#paint15_linear_4_94)"/>
<path d="M185.315 610.948V621.378H174.648V610.948H185.315Z" fill="url(#paint16_linear_4_94)"/>
<path d="M205.749 610.948V621.378H195.082V610.948H205.749Z" fill="url(#paint17_linear_4_94)"/>
<path d="M164.865 592.701V603.131H154.197V592.701H164.865Z" fill="url(#paint18_linear_4_94)"/>
<path d="M185.315 592.701V603.131H174.648V592.701H185.315Z" fill="url(#paint19_linear_4_94)"/>
<path d="M205.749 592.701V603.131H195.082V592.701H205.749Z" fill="url(#paint20_linear_4_94)"/>
<path d="M164.865 574.453V584.883H154.198V574.453H164.865Z" fill="url(#paint21_linear_4_94)"/>
<path d="M185.315 574.453V584.883H174.648V574.453H185.315Z" fill="url(#paint22_linear_4_94)"/>
<path d="M205.749 574.453V584.883H195.082V574.453H205.749Z" fill="url(#paint23_linear_4_94)"/>
<path d="M362.174 655.261V665.691H351.506V655.261H362.174Z" fill="url(#paint24_linear_4_94)"/>
<path d="M382.624 655.261V665.691H371.956V655.261H382.624Z" fill="url(#paint25_linear_4_94)"/>
<path d="M403.057 655.261V665.691H392.39V655.261H403.057Z" fill="url(#paint26_linear_4_94)"/>
<path d="M362.174 637.014V647.443H351.506V637.014H362.174Z" fill="url(#paint27_linear_4_94)"/>
<path d="M382.624 637.014V647.443H371.956V637.014H382.624Z" fill="url(#paint28_linear_4_94)"/>
<path d="M403.057 637.014V647.443H392.39V637.014H403.057Z" fill="url(#paint29_linear_4_94)"/>
<path d="M362.174 618.766V629.196H351.506V618.766H362.174Z" fill="url(#paint30_linear_4_94)"/>
<path d="M382.624 618.766V629.196H371.956V618.766H382.624Z" fill="url(#paint31_linear_4_94)"/>
<path d="M403.057 618.766V629.196H392.39V618.766H403.057Z" fill="url(#paint32_linear_4_94)"/>
<path d="M362.173 600.519V610.948H351.506V600.519H362.173Z" fill="url(#paint33_linear_4_94)"/>
<path d="M382.624 600.519V610.948H371.956V600.519H382.624Z" fill="url(#paint34_linear_4_94)"/>
<path d="M403.057 600.519V610.948H392.39V600.519H403.057Z" fill="url(#paint35_linear_4_94)"/>
<path d="M164.865 685.668V696.098H154.197V685.668H164.865Z" fill="url(#paint36_linear_4_94)"/>
<path d="M185.315 685.668V696.098H174.648V685.668H185.315Z" fill="url(#paint37_linear_4_94)"/>
<path d="M205.749 685.668V696.098H195.082V685.668H205.749Z" fill="url(#paint38_linear_4_94)"/>
<path d="M164.865 667.421V677.85H154.197V667.421H164.865Z" fill="url(#paint39_linear_4_94)"/>
<path d="M185.315 667.421V677.85H174.648V667.421H185.315Z" fill="url(#paint40_linear_4_94)"/>
<path d="M205.749 667.421V677.85H195.082V667.421H205.749Z" fill="url(#paint41_linear_4_94)"/>
<path d="M164.865 649.174V659.603H154.198V649.174H164.865Z" fill="url(#paint42_linear_4_94)"/>
<path d="M185.315 649.174V659.603H174.648V649.174H185.315Z" fill="url(#paint43_linear_4_94)"/>
<path d="M205.749 649.174V659.603H195.082V649.174H205.749Z" fill="url(#paint44_linear_4_94)"/>
<path d="M51.9957 554.46H44.884V650.904H51.9957V554.46Z" fill="url(#paint45_linear_4_94)"/>
<path d="M68.8903 554.46H61.7785V650.904H68.8903V554.46Z" fill="url(#paint46_linear_4_94)"/>
<path d="M86.6529 554.46H79.5412V650.904H86.6529V554.46Z" fill="url(#paint47_linear_4_94)"/>
<path d="M200.424 490.169H156.869V497.122H200.424V490.169Z" fill="#F7C5C5"/>
<path d="M229.739 490.169H213.746V497.122H229.739V490.169Z" fill="#F7C5C5"/>
<path d="M200.424 507.551H156.869V514.504H200.424V507.551Z" fill="#F7C5C5"/>
<path d="M200.874 527.088H157.319V534.041H200.874V527.088Z" fill="#F7C5C5"/>
<path d="M229.739 507.551H213.746V514.504H229.739V507.551Z" fill="#F7C5C5"/>
<path d="M229.739 526.664H213.746V533.617H229.739V526.664Z" fill="#F7C5C5"/>
<path d="M200.424 544.046H156.869V550.999H200.424V544.046Z" fill="#F7C5C5"/>
<path d="M229.739 544.046H213.746V550.999H229.739V544.046Z" fill="url(#paint48_linear_4_94)"/>
</g>
<defs>
<linearGradient id="paint0_linear_4_94" x1="175.481" y1="125.842" x2="43.8763" y2="454.46" gradientUnits="userSpaceOnUse">
<stop stop-color="#FFD2D6"/>
<stop offset="1" stop-color="#839AEA"/>
</linearGradient>
<linearGradient id="paint1_linear_4_94" x1="288.028" y1="235" x2="288.028" y2="461.057" gradientUnits="userSpaceOnUse">
<stop stop-color="#FA99B2" stop-opacity="0.44"/>
<stop offset="1" stop-color="#D9D7FF" stop-opacity="0.25"/>
</linearGradient>
<linearGradient id="paint2_linear_4_94" x1="207.975" y1="284.561" x2="207.975" y2="450.334" gradientUnits="userSpaceOnUse">
<stop stop-color="#FFC0C0"/>
<stop offset="1" stop-color="white" stop-opacity="0"/>
</linearGradient>
<linearGradient id="paint3_linear_4_94" x1="216.75" y1="261.173" x2="210.091" y2="483.955" gradientUnits="userSpaceOnUse">
<stop stop-color="#FF7B87"/>
<stop offset="1" stop-color="#8399E9"/>
</linearGradient>
<linearGradient id="paint4_linear_4_94" x1="207.975" y1="278.044" x2="207.975" y2="592.249" gradientUnits="userSpaceOnUse">
<stop stop-color="#FF7B87"/>
<stop offset="1" stop-color="#8399E9"/>
</linearGradient>
<linearGradient id="paint5_linear_4_94" x1="207.752" y1="460.509" x2="207.752" y2="760.996" gradientUnits="userSpaceOnUse">
<stop stop-color="#FF7B87"/>
<stop offset="0.828125" stop-color="#8399E9"/>
</linearGradient>
<linearGradient id="paint6_linear_4_94" x1="320.403" y1="476.146" x2="320.403" y2="794.486" gradientUnits="userSpaceOnUse">
<stop stop-color="#D7F0FC"/>
<stop offset="1" stop-color="#CEECF3" stop-opacity="0"/>
</linearGradient>
<linearGradient id="paint7_linear_4_94" x1="320.403" y1="476.149" x2="320.403" y2="794.481" gradientUnits="userSpaceOnUse">
<stop stop-color="#D7F0FC"/>
<stop offset="1" stop-color="#CEECF3" stop-opacity="0"/>
</linearGradient>
<linearGradient id="paint8_linear_4_94" x1="320.403" y1="476.146" x2="320.403" y2="794.485" gradientUnits="userSpaceOnUse">
<stop stop-color="#D7F0FC"/>
<stop offset="1" stop-color="#CEECF3" stop-opacity="0"/>
</linearGradient>
<linearGradient id="paint9_linear_4_94" x1="320.403" y1="476.149" x2="320.403" y2="794.481" gradientUnits="userSpaceOnUse">
<stop stop-color="#D7F0FC"/>
<stop offset="1" stop-color="#CEECF3" stop-opacity="0"/>
</linearGradient>
<linearGradient id="paint10_linear_4_94" x1="320.403" y1="476.149" x2="320.403" y2="794.481" gradientUnits="userSpaceOnUse">
<stop stop-color="#D7F0FC"/>
<stop offset="1" stop-color="#CEECF3" stop-opacity="0"/>
</linearGradient>
<linearGradient id="paint11_linear_4_94" x1="320.403" y1="476.145" x2="320.403" y2="794.484" gradientUnits="userSpaceOnUse">
<stop stop-color="#D7F0FC"/>
<stop offset="1" stop-color="#CEECF3" stop-opacity="0"/>
</linearGradient>
<linearGradient id="paint12_linear_4_94" x1="159.537" y1="476.149" x2="159.537" y2="794.483" gradientUnits="userSpaceOnUse">
<stop stop-color="#D7F0FC"/>
<stop offset="1" stop-color="#CEECF3" stop-opacity="0"/>
</linearGradient>
<linearGradient id="paint13_linear_4_94" x1="179.979" y1="476.149" x2="179.979" y2="794.483" gradientUnits="userSpaceOnUse">
<stop stop-color="#D7F0FC"/>
<stop offset="1" stop-color="#CEECF3" stop-opacity="0"/>
</linearGradient>
<linearGradient id="paint14_linear_4_94" x1="200.42" y1="476.149" x2="200.42" y2="794.483" gradientUnits="userSpaceOnUse">
<stop stop-color="#D7F0FC"/>
<stop offset="1" stop-color="#CEECF3" stop-opacity="0"/>
</linearGradient>
<linearGradient id="paint15_linear_4_94" x1="159.537" y1="476.151" x2="159.537" y2="794.48" gradientUnits="userSpaceOnUse">
<stop stop-color="#D7F0FC"/>
<stop offset="1" stop-color="#CEECF3" stop-opacity="0"/>
</linearGradient>
<linearGradient id="paint16_linear_4_94" x1="179.979" y1="476.151" x2="179.979" y2="794.48" gradientUnits="userSpaceOnUse">
<stop stop-color="#D7F0FC"/>
<stop offset="1" stop-color="#CEECF3" stop-opacity="0"/>
</linearGradient>
<linearGradient id="paint17_linear_4_94" x1="200.42" y1="476.151" x2="200.42" y2="794.48" gradientUnits="userSpaceOnUse">
<stop stop-color="#D7F0FC"/>
<stop offset="1" stop-color="#CEECF3" stop-opacity="0"/>
</linearGradient>
<linearGradient id="paint18_linear_4_94" x1="159.537" y1="476.148" x2="159.537" y2="794.485" gradientUnits="userSpaceOnUse">
<stop stop-color="#D7F0FC"/>
<stop offset="1" stop-color="#CEECF3" stop-opacity="0"/>
</linearGradient>
<linearGradient id="paint19_linear_4_94" x1="179.979" y1="476.148" x2="179.979" y2="794.485" gradientUnits="userSpaceOnUse">
<stop stop-color="#D7F0FC"/>
<stop offset="1" stop-color="#CEECF3" stop-opacity="0"/>
</linearGradient>
<linearGradient id="paint20_linear_4_94" x1="200.42" y1="476.148" x2="200.42" y2="794.485" gradientUnits="userSpaceOnUse">
<stop stop-color="#D7F0FC"/>
<stop offset="1" stop-color="#CEECF3" stop-opacity="0"/>
</linearGradient>
<linearGradient id="paint21_linear_4_94" x1="159.537" y1="476.149" x2="159.537" y2="794.481" gradientUnits="userSpaceOnUse">
<stop stop-color="#D7F0FC"/>
<stop offset="1" stop-color="#CEECF3" stop-opacity="0"/>
</linearGradient>
<linearGradient id="paint22_linear_4_94" x1="179.979" y1="476.149" x2="179.979" y2="794.481" gradientUnits="userSpaceOnUse">
<stop stop-color="#D7F0FC"/>
<stop offset="1" stop-color="#CEECF3" stop-opacity="0"/>
</linearGradient>
<linearGradient id="paint23_linear_4_94" x1="200.42" y1="476.149" x2="200.42" y2="794.481" gradientUnits="userSpaceOnUse">
<stop stop-color="#D7F0FC"/>
<stop offset="1" stop-color="#CEECF3" stop-opacity="0"/>
</linearGradient>
<linearGradient id="paint24_linear_4_94" x1="356.842" y1="476.149" x2="356.842" y2="794.482" gradientUnits="userSpaceOnUse">
<stop stop-color="#D7F0FC"/>
<stop offset="1" stop-color="#CEECF3" stop-opacity="0"/>
</linearGradient>
<linearGradient id="paint25_linear_4_94" x1="377.284" y1="476.149" x2="377.284" y2="794.482" gradientUnits="userSpaceOnUse">
<stop stop-color="#D7F0FC"/>
<stop offset="1" stop-color="#CEECF3" stop-opacity="0"/>
</linearGradient>
<linearGradient id="paint26_linear_4_94" x1="397.725" y1="476.149" x2="397.725" y2="794.482" gradientUnits="userSpaceOnUse">
<stop stop-color="#D7F0FC"/>
<stop offset="1" stop-color="#CEECF3" stop-opacity="0"/>
</linearGradient>
<linearGradient id="paint27_linear_4_94" x1="356.842" y1="476.147" x2="356.842" y2="794.484" gradientUnits="userSpaceOnUse">
<stop stop-color="#D7F0FC"/>
<stop offset="1" stop-color="#CEECF3" stop-opacity="0"/>
</linearGradient>
<linearGradient id="paint28_linear_4_94" x1="377.284" y1="476.147" x2="377.284" y2="794.484" gradientUnits="userSpaceOnUse">
<stop stop-color="#D7F0FC"/>
<stop offset="1" stop-color="#CEECF3" stop-opacity="0"/>
</linearGradient>
<linearGradient id="paint29_linear_4_94" x1="397.725" y1="476.147" x2="397.725" y2="794.484" gradientUnits="userSpaceOnUse">
<stop stop-color="#D7F0FC"/>
<stop offset="1" stop-color="#CEECF3" stop-opacity="0"/>
</linearGradient>
<linearGradient id="paint30_linear_4_94" x1="356.842" y1="476.149" x2="356.842" y2="794.482" gradientUnits="userSpaceOnUse">
<stop stop-color="#D7F0FC"/>
<stop offset="1" stop-color="#CEECF3" stop-opacity="0"/>
</linearGradient>
<linearGradient id="paint31_linear_4_94" x1="377.284" y1="476.149" x2="377.284" y2="794.482" gradientUnits="userSpaceOnUse">
<stop stop-color="#D7F0FC"/>
<stop offset="1" stop-color="#CEECF3" stop-opacity="0"/>
</linearGradient>
<linearGradient id="paint32_linear_4_94" x1="397.725" y1="476.149" x2="397.725" y2="794.482" gradientUnits="userSpaceOnUse">
<stop stop-color="#D7F0FC"/>
<stop offset="1" stop-color="#CEECF3" stop-opacity="0"/>
</linearGradient>
<linearGradient id="paint33_linear_4_94" x1="356.842" y1="476.147" x2="356.842" y2="794.484" gradientUnits="userSpaceOnUse">
<stop stop-color="#D7F0FC"/>
<stop offset="1" stop-color="#CEECF3" stop-opacity="0"/>
</linearGradient>
<linearGradient id="paint34_linear_4_94" x1="377.284" y1="476.147" x2="377.284" y2="794.484" gradientUnits="userSpaceOnUse">
<stop stop-color="#D7F0FC"/>
<stop offset="1" stop-color="#CEECF3" stop-opacity="0"/>
</linearGradient>
<linearGradient id="paint35_linear_4_94" x1="397.725" y1="476.147" x2="397.725" y2="794.484" gradientUnits="userSpaceOnUse">
<stop stop-color="#D7F0FC"/>
<stop offset="1" stop-color="#CEECF3" stop-opacity="0"/>
</linearGradient>
<linearGradient id="paint36_linear_4_94" x1="159.537" y1="476.146" x2="159.537" y2="794.483" gradientUnits="userSpaceOnUse">
<stop stop-color="#D7F0FC"/>
<stop offset="1" stop-color="#CEECF3" stop-opacity="0"/>
</linearGradient>
<linearGradient id="paint37_linear_4_94" x1="179.979" y1="476.146" x2="179.979" y2="794.483" gradientUnits="userSpaceOnUse">
<stop stop-color="#D7F0FC"/>
<stop offset="1" stop-color="#CEECF3" stop-opacity="0"/>
</linearGradient>
<linearGradient id="paint38_linear_4_94" x1="200.42" y1="476.146" x2="200.42" y2="794.483" gradientUnits="userSpaceOnUse">
<stop stop-color="#D7F0FC"/>
<stop offset="1" stop-color="#CEECF3" stop-opacity="0"/>
</linearGradient>
<linearGradient id="paint39_linear_4_94" x1="159.537" y1="476.149" x2="159.537" y2="794.482" gradientUnits="userSpaceOnUse">
<stop stop-color="#D7F0FC"/>
<stop offset="1" stop-color="#CEECF3" stop-opacity="0"/>
</linearGradient>
<linearGradient id="paint40_linear_4_94" x1="179.979" y1="476.149" x2="179.979" y2="794.482" gradientUnits="userSpaceOnUse">
<stop stop-color="#D7F0FC"/>
<stop offset="1" stop-color="#CEECF3" stop-opacity="0"/>
</linearGradient>
<linearGradient id="paint41_linear_4_94" x1="200.42" y1="476.149" x2="200.42" y2="794.482" gradientUnits="userSpaceOnUse">
<stop stop-color="#D7F0FC"/>
<stop offset="1" stop-color="#CEECF3" stop-opacity="0"/>
</linearGradient>
<linearGradient id="paint42_linear_4_94" x1="159.537" y1="476.146" x2="159.537" y2="794.484" gradientUnits="userSpaceOnUse">
<stop stop-color="#D7F0FC"/>
<stop offset="1" stop-color="#CEECF3" stop-opacity="0"/>
</linearGradient>
<linearGradient id="paint43_linear_4_94" x1="179.979" y1="476.146" x2="179.979" y2="794.484" gradientUnits="userSpaceOnUse">
<stop stop-color="#D7F0FC"/>
<stop offset="1" stop-color="#CEECF3" stop-opacity="0"/>
</linearGradient>
<linearGradient id="paint44_linear_4_94" x1="200.42" y1="476.146" x2="200.42" y2="794.484" gradientUnits="userSpaceOnUse">
<stop stop-color="#D7F0FC"/>
<stop offset="1" stop-color="#CEECF3" stop-opacity="0"/>
</linearGradient>
<linearGradient id="paint45_linear_4_94" x1="48.4419" y1="476.149" x2="48.4419" y2="794.482" gradientUnits="userSpaceOnUse">
<stop stop-color="#D7F0FC"/>
<stop offset="1" stop-color="#CEECF3" stop-opacity="0"/>
</linearGradient>
<linearGradient id="paint46_linear_4_94" x1="65.3284" y1="476.149" x2="65.3284" y2="794.482" gradientUnits="userSpaceOnUse">
<stop stop-color="#D7F0FC"/>
<stop offset="1" stop-color="#CEECF3" stop-opacity="0"/>
</linearGradient>
<linearGradient id="paint47_linear_4_94" x1="83.1035" y1="476.149" x2="83.1035" y2="794.482" gradientUnits="userSpaceOnUse">
<stop stop-color="#D7F0FC"/>
<stop offset="1" stop-color="#CEECF3" stop-opacity="0"/>
</linearGradient>
<linearGradient id="paint48_linear_4_94" x1="221.75" y1="476.147" x2="221.75" y2="794.487" gradientUnits="userSpaceOnUse">
<stop stop-color="#FFA6AE"/>
<stop offset="1" stop-color="#8399E9" stop-opacity="0"/>
</linearGradient>
<clipPath id="clip0_4_94">
<rect width="479" height="695" fill="white"/>
</clipPath>
</defs>
</svg>
