<svg width="24" height="24" viewBox="0 0 24 24" fill="none" xmlns="http://www.w3.org/2000/svg">
<circle cx="12" cy="12" r="12" fill="#EDEBFF"/>
<path fill-rule="evenodd" clip-rule="evenodd" d="M6 11.6837V16.3673H8.1H10.2V17.1742C10.2 17.6179 10.2147 17.981 10.2325 17.981C10.2504 17.981 10.6601 17.6179 11.1429 17.1742L12.0207 16.3673L12.9103 17.1837L13.8 18V17.1837V16.3673H15.9H18V11.6837V7H12H6V11.6837ZM16.8 11.6837V15.2653H15.3039H13.8079L13.7932 14.5076L13.7786 13.75L13.6421 13.4854C13.3761 12.9697 12.8964 12.6352 12.2849 12.539C11.5694 12.4265 10.7781 12.7661 10.4445 13.3289C10.2496 13.6577 10.2 13.9206 10.2 14.6241V15.2653H8.7H7.2V11.6837V8.10204H12H16.8V11.6837ZM8.4 9.7551V10.3061H12H15.6V9.7551V9.20408H12H8.4V9.7551ZM8.4 11.4082V11.9592H12H15.6V11.4082V10.8571H12H8.4V11.4082ZM12.3007 13.6845C12.5657 13.8126 12.6698 14.1303 12.5403 14.4152C12.3264 14.8853 11.503 14.7752 11.4198 14.2653C11.3421 13.7893 11.8394 13.4614 12.3007 13.6845Z" fill="#2E2764"/>
</svg>
