<svg width="24" height="24" viewBox="0 0 24 24" fill="none" xmlns="http://www.w3.org/2000/svg">
<circle cx="12" cy="12" r="12" fill="#EDEBFF"/>
<path fill-rule="evenodd" clip-rule="evenodd" d="M14.925 6.02427C14.8313 6.05855 14.7503 6.17155 14.7503 6.2679C14.7503 6.34825 14.7877 6.38989 15.1878 6.75472C15.4284 6.97412 15.6252 7.16438 15.6251 7.17748C15.6248 7.2075 13.3865 9.20573 13.3451 9.21289C13.3284 9.21578 12.7917 8.61969 12.1525 7.88825C11.5134 7.15682 10.9575 6.52748 10.9173 6.48974C10.8595 6.43547 10.8194 6.42108 10.7259 6.4211C10.6104 6.42113 10.5541 6.45984 8.36531 8.04368C7.13207 8.93609 6.09538 9.69465 6.06153 9.72935C6.02026 9.77168 6 9.82409 6 9.88857C6 9.9707 6.03038 10.0199 6.20861 10.2264C6.65392 10.7425 6.66721 10.7557 6.76565 10.7828C6.88974 10.8168 6.96122 10.7914 7.16543 10.6406C7.25386 10.5753 7.51694 10.3843 7.75006 10.216C7.98317 10.0478 8.19886 9.89141 8.22938 9.8685C8.2599 9.84559 8.46908 9.69363 8.69424 9.5308C8.91939 9.36797 9.1959 9.16776 9.3087 9.0859C9.55814 8.90486 10.4595 8.25442 10.4998 8.22638C10.5178 8.21382 10.6369 8.32932 10.8165 8.53354C11.6595 9.49236 12.7543 10.7404 12.8883 10.8954C13.0564 11.0898 13.1175 11.1272 13.2667 11.1272C13.3612 11.1272 13.414 11.0846 14.243 10.3395C15.717 9.01471 16.6859 8.15046 16.7016 8.1464C16.7098 8.14427 16.913 8.31741 17.1531 8.53116C17.4982 8.83833 17.6095 8.92314 17.6843 8.93584C17.8051 8.95638 17.9308 8.8999 17.9738 8.80576C17.9971 8.75486 18.0037 8.38535 17.9982 7.44025L17.9906 6.14453L17.9013 6.07225L17.812 6L16.3974 6.00156C15.6193 6.00243 14.9567 6.01266 14.925 6.02427ZM9.58004 9.78778L9.50011 9.86018V13.3438C9.50011 15.6857 9.50933 16.843 9.52828 16.875C9.59286 16.9844 9.67955 16.9975 10.3355 16.9975H10.9548L11.0478 16.9133L11.1408 16.8291V13.3565V9.88381L11.0478 9.79959L10.9548 9.71538H10.3074H9.65997L9.58004 9.78778ZM15.7073 9.74706C15.6697 9.76408 15.6173 9.81686 15.5909 9.86434C15.5456 9.94568 15.5432 10.1509 15.5499 13.3992L15.5569 16.8478L15.6327 16.9165L15.7085 16.9851L16.3531 16.9926C16.9122 16.9991 17.0068 16.9947 17.0658 16.9597C17.2193 16.8686 17.2127 17.0429 17.2048 13.3049L17.1976 9.85993L17.1083 9.78766L17.019 9.71538L16.3974 9.71575C15.9557 9.716 15.7559 9.72506 15.7073 9.74706ZM6.61525 11.7993C6.58517 11.8146 6.53932 11.8508 6.51331 11.8797C6.46929 11.9287 6.46603 12.0974 6.46546 14.367C6.4648 17.0121 6.4586 16.9036 6.61449 16.9679C6.66316 16.988 6.8799 16.9975 7.28911 16.9975C7.94294 16.9975 8.01084 16.9853 8.07587 16.856C8.09654 16.8149 8.10554 16.0627 8.10554 14.3712V11.9454L8.0258 11.8645L7.94606 11.7836L7.308 11.7775C6.87306 11.7733 6.65252 11.7802 6.61525 11.7993ZM12.6195 11.9344L12.5354 11.9986V14.4223V16.8461L12.6013 16.9156L12.6673 16.9851L13.324 16.9926L13.9807 17L14.0715 16.9265L14.1624 16.853L14.1703 14.5041C14.1746 13.2121 14.1707 12.1177 14.1616 12.0719C14.1525 12.0261 14.1157 11.962 14.0798 11.9294C14.0145 11.8704 14.0135 11.8703 13.359 11.8703H12.7036L12.6195 11.9344Z" fill="#2E2764"/>
</svg>
