<svg width="24" height="24" viewBox="0 0 24 24" fill="none" xmlns="http://www.w3.org/2000/svg">
<circle cx="12" cy="12" r="12" fill="#EDEBFF"/>
<path fill-rule="evenodd" clip-rule="evenodd" d="M11.014 4.48702C11.4448 4.17062 11.9654 4 12.5 4C13.0346 4 13.5552 4.17062 13.986 4.48702L14.8561 5.12461C14.9996 5.23056 15.1655 5.29901 15.3418 5.3262L16.4087 5.49028C16.9368 5.57126 17.4253 5.8186 17.8032 6.19632C18.1811 6.57405 18.4286 7.06247 18.5098 7.59057L18.6739 8.65759C18.7011 8.83292 18.7695 8.99982 18.8755 9.14328L19.513 10.0134C19.8294 10.4443 20 10.9649 20 11.4995C20 12.0341 19.8294 12.5548 19.513 12.9857L18.8755 13.8558C18.7702 13.9991 18.701 14.1657 18.6739 14.3415L18.5098 15.4085C18.4288 15.9368 18.1813 16.4254 17.8034 16.8033C17.4256 17.1812 16.937 17.4287 16.4087 17.5097L15.3418 17.6738C15.166 17.701 14.9994 17.7701 14.8561 17.8754L13.986 18.513C13.5552 18.8294 13.0346 19 12.5 19C11.9654 19 11.4448 18.8294 11.014 18.513L10.1439 17.8754C10.0006 17.7701 9.83398 17.701 9.65823 17.6738L8.59034 17.5107C8.06241 17.4295 7.57412 17.1821 7.19644 16.8044C6.81875 16.4267 6.57135 15.9383 6.49019 15.4104L6.32612 14.3434C6.29897 14.1676 6.22982 14.001 6.12454 13.8577L5.48699 12.9875C5.17061 12.5566 5 12.036 5 11.5014C5 10.9668 5.17061 10.4462 5.48699 10.0153L6.12454 9.14515C6.23011 9.00199 6.29929 8.83531 6.32612 8.65946L6.49019 7.59057C6.57135 7.06261 6.81875 6.57428 7.19644 6.19657C7.57412 5.81886 8.06241 5.57145 8.59034 5.49028L9.65729 5.3262C9.83262 5.29901 9.99951 5.23056 10.143 5.12461L11.013 4.48702H11.014ZM13.1535 5.62061C12.964 5.48153 12.7351 5.40653 12.5 5.40653C12.2649 5.40653 12.036 5.48153 11.8465 5.62061L10.9765 6.2582C10.6501 6.49804 10.2705 6.65534 9.87012 6.7167L8.80505 6.87985C8.57231 6.91533 8.35701 7.02426 8.19054 7.19074C8.02407 7.35722 7.91515 7.57254 7.87967 7.80528L7.71653 8.87136C7.65518 9.27175 7.49788 9.65134 7.25806 9.97776L6.62051 10.8469C6.33455 11.2361 6.33455 11.7658 6.62051 12.154L7.25806 13.0241C7.49808 13.3504 7.65465 13.7292 7.71653 14.1305L7.87967 15.1957C7.9528 15.6738 8.32782 16.048 8.80505 16.1211L9.87106 16.2842C10.2714 16.3461 10.6502 16.5027 10.9774 16.7427L11.8465 17.3803C12.2356 17.6663 12.7653 17.6663 13.1535 17.3803L14.0235 16.7427C14.3499 16.5029 14.7295 16.3456 15.1299 16.2842L16.195 16.1211C16.6731 16.048 17.0472 15.6729 17.1203 15.1957L17.2835 14.1296C17.3453 13.7292 17.5019 13.3504 17.7419 13.0232L18.3795 12.154C18.6654 11.7649 18.6654 11.2351 18.3795 10.8469L17.7419 9.97683C17.5021 9.65041 17.3448 9.27081 17.2835 8.87043L17.1203 7.80528C17.0849 7.57254 16.9759 7.35722 16.8095 7.19074C16.643 7.02426 16.4277 6.91533 16.195 6.87985L15.1289 6.7167C14.7286 6.65534 14.349 6.49804 14.0226 6.2582L13.1535 5.62061V5.62061ZM13.4376 14.3133C13.4376 14.562 13.3388 14.8005 13.163 14.9763C12.9871 15.1522 12.7487 15.251 12.5 15.251C12.2513 15.251 12.0129 15.1522 11.837 14.9763C11.6612 14.8005 11.5624 14.562 11.5624 14.3133C11.5624 14.0647 11.6612 13.8262 11.837 13.6503C12.0129 13.4745 12.2513 13.3757 12.5 13.3757C12.7487 13.3757 12.9871 13.4745 13.163 13.6503C13.3388 13.8262 13.4376 14.0647 13.4376 14.3133V14.3133ZM11.4874 9.70491C11.5634 9.55489 11.6656 9.42456 11.8062 9.33174C11.9421 9.24079 12.154 9.1564 12.5 9.1564C12.7625 9.1564 13.0185 9.23798 13.1919 9.36737C13.2708 9.42234 13.3345 9.4962 13.3775 9.5822C13.4204 9.66819 13.441 9.76358 13.4376 9.85962C13.4376 10.0256 13.4001 10.1072 13.3654 10.1578C13.2946 10.2505 13.2064 10.3286 13.1057 10.3875C13.0344 10.4353 12.9575 10.4813 12.8638 10.5385L12.8572 10.5422C12.77 10.5947 12.6659 10.6566 12.5638 10.7251C12.3083 10.8863 12.0877 11.097 11.915 11.3448C11.814 11.5 11.7782 11.6888 11.8155 11.8701C11.8528 12.0515 11.9602 12.2108 12.1142 12.3136C12.2683 12.4163 12.4566 12.4541 12.6384 12.4188C12.8202 12.3834 12.9806 12.2779 13.085 12.1249C13.1556 12.0323 13.2435 11.9542 13.3438 11.8952C13.4238 11.8432 13.5051 11.7932 13.5876 11.7452L13.5932 11.7414C13.6804 11.688 13.7845 11.6261 13.8867 11.5586C14.0948 11.4189 14.3433 11.2257 14.5355 10.9379C14.7361 10.6379 14.8439 10.2797 14.8439 9.85962C14.8439 9.14703 14.5064 8.5957 14.0357 8.24222C13.5893 7.91872 13.0513 7.74626 12.5 7.74996C11.9084 7.74996 11.418 7.89998 11.0261 8.16064C10.6389 8.41943 10.3886 8.75885 10.2301 9.0767C10.1486 9.24336 10.1361 9.43551 10.1956 9.61128C10.2551 9.78706 10.3816 9.9322 10.5476 10.0151C10.7136 10.098 10.9056 10.1119 11.0819 10.0538C11.2581 9.99568 11.4042 9.87028 11.4884 9.70491H11.4874Z" fill="#2E2764"/>
</svg>
