<svg width="24" height="24" viewBox="0 0 24 24" fill="none" xmlns="http://www.w3.org/2000/svg">
<circle cx="12" cy="12" r="12" fill="#EDEBFF"/>
<path fill-rule="evenodd" clip-rule="evenodd" d="M13.3875 5.45453C12.9853 5.15924 12.4994 5 12.0004 5C11.5015 5 11.0156 5.15924 10.6134 5.45453L9.80127 6.04957C9.66751 6.14786 9.512 6.2124 9.34796 6.23771L8.3512 6.39084C7.85843 6.46659 7.40267 6.6975 7.05014 7.05001C6.69761 7.40252 6.46668 7.85825 6.39093 8.35099L6.23779 9.34856C6.21248 9.5126 6.14793 9.6681 6.04964 9.80184L5.45456 10.6139C5.15925 11.0161 5 11.502 5 12.0009C5 12.4998 5.15925 12.9857 5.45456 13.3879L6.04964 14.1999C6.14852 14.3338 6.21241 14.4887 6.23779 14.6532L6.39093 15.649C6.46668 16.1417 6.69761 16.5975 7.05014 16.95C7.40267 17.3025 7.85843 17.5334 8.3512 17.6092L9.34708 17.7623C9.51073 17.7877 9.6665 17.8515 9.80039 17.9504L10.6125 18.5455C11.0147 18.8408 11.5006 19 11.9996 19C12.4985 19 12.9844 18.8408 13.3866 18.5455L14.1987 17.9504C14.3323 17.8519 14.4879 17.7873 14.652 17.7623L15.6479 17.6092C16.141 17.5335 16.597 17.3026 16.9497 16.9499C17.3025 16.5972 17.5334 16.1412 17.6091 15.6481L17.7622 14.6523C17.7876 14.4887 17.8515 14.3329 17.9504 14.199L18.5454 13.387C18.8408 12.9848 19 12.4989 19 12C19 11.5011 18.8408 11.0152 18.5454 10.613L17.9504 9.80097C17.8521 9.6672 17.7876 9.51171 17.7622 9.34768L17.6099 8.35099C17.5342 7.85825 17.3033 7.40252 16.9507 7.05001C16.5982 6.6975 16.1424 6.46659 15.6497 6.39084L14.6538 6.23771C14.4898 6.21237 14.3343 6.14783 14.2005 6.04957L13.3875 5.45453ZM11.3905 6.5116C11.7537 6.24471 12.2481 6.24471 12.6104 6.5116L13.4225 7.10665C13.727 7.33066 14.0806 7.4768 14.4551 7.53455L15.4493 7.68681C15.8956 7.75507 16.2448 8.10509 16.313 8.5505L16.4653 9.54545C16.523 9.9191 16.6692 10.2726 16.8932 10.578L17.4883 11.3892C17.7552 11.7524 17.7552 12.2468 17.4883 12.609L16.8932 13.4211C16.6694 13.7257 16.5226 14.08 16.4653 14.4537L16.313 15.4477C16.2799 15.665 16.1782 15.8659 16.0229 16.0213C15.8675 16.1767 15.6665 16.2783 15.4493 16.3114L14.4543 16.4637C14.0806 16.521 13.7263 16.6678 13.4216 16.8916L12.6104 17.4866C12.2472 17.7535 11.7528 17.7535 11.3905 17.4866L10.5784 16.8916C10.2737 16.6678 9.91942 16.521 9.54573 16.4637L8.5516 16.3114C8.33437 16.2783 8.1334 16.1767 7.97802 16.0213C7.82264 15.8659 7.72098 15.665 7.68786 15.4477L7.53559 14.4528C7.47832 14.0791 7.3315 13.7249 7.10765 13.4202L6.51257 12.609C6.38276 12.4322 6.31276 12.2185 6.31276 11.9991C6.31276 11.7797 6.38276 11.5661 6.51257 11.3892L7.10765 10.5771C7.33168 10.2726 7.47783 9.9191 7.53559 9.54457L7.68786 8.5505C7.75612 8.10422 8.10616 7.75507 8.5516 7.68681L9.54661 7.53455C9.9203 7.47729 10.2746 7.33048 10.5792 7.10665L11.3905 6.5116V6.5116ZM14.8708 10.9324C14.9868 10.808 15.0499 10.6435 15.0469 10.4734C15.0439 10.3034 14.975 10.1412 14.8547 10.0209C14.7345 9.90069 14.5723 9.83182 14.4022 9.82882C14.2322 9.82582 14.0676 9.88893 13.9432 10.0049L11.1253 12.8226L10.0577 11.755C9.93326 11.6391 9.76869 11.5759 9.59866 11.5789C9.42862 11.5819 9.26639 11.6508 9.14613 11.7711C9.02588 11.8913 8.957 12.0535 8.954 12.2236C8.951 12.3936 9.01412 12.5581 9.13005 12.6825L10.6615 14.2139C10.7846 14.3368 10.9514 14.4058 11.1253 14.4058C11.2993 14.4058 11.4661 14.3368 11.5891 14.2139L14.8708 10.9324V10.9324Z" fill="#2E2764"/>
</svg>
